<svg id="Calque_1" data-name="Calque 1" xmlns="http://www.w3.org/2000/svg" viewBox="0 0 125 60"><defs><style>.cls-1{fill:#ed1c24;}.cls-2{fill:#231f20;}</style></defs><title>Artboard 1</title><path class="cls-1" d="M40.13,35.28S29.69,20.9,40.13,0H0V35.28Z"/><path class="cls-1" d="M88.59,35.3a30.34,30.34,0,0,1-5-16L83.61,0h40.81l0,35.28Z"/><path class="cls-2" d="M48.54,0s-4.61,8-4.78,15.62H48v3.65H43.58a30.33,30.33,0,0,0,5,16H44.23S33.8,20.9,44.23,0Z"/><path class="cls-2" d="M64.68,35.3h4.06v-16h4.33V15.64H68.81C69,8.07,73.6,0,73.6,0h-4.3a41.22,41.22,0,0,0-4.63,17.65Z"/><path class="cls-2" d="M79.49,19.29a30.31,30.31,0,0,0,5,16H80.14s-4.87-6.72-4.63-17.63V0h4Z"/><rect class="cls-2" x="51.2" y="0.02" width="4" height="35.28"/><path class="cls-2" d="M60.6,0H56.34s6.7,8.79,0,17.66H60.6A15.48,15.48,0,0,0,60.6,0Z"/><path class="cls-2" d="M3.27,40.07c0,.09,0,.11,0,.11a1.35,1.35,0,0,0-.28,0,6.09,6.09,0,0,0-1.43.39l-.14,0a.05.05,0,0,1,0-.06s0,0,.07-.07c.34-.23,1.21-.76,1.28-.8s.22-.12.26-.12,0,0,.09.09S3.16,39.88,3.27,40.07Zm-2.72,4c0-1.46,0-1.73,0-2s-.09-.47-.4-.54a1.77,1.77,0,0,0-.32,0s-.08,0-.08-.06,0-.08.15-.08c.42,0,1,0,1.06,0H3.09a2.56,2.56,0,0,0,.4,0s.09,0,.13,0,0,0,0,.08,0,.18-.08.44c0,.09,0,.51,0,.62s0,.11-.07.11-.07,0-.07-.12a1,1,0,0,0-.06-.34c-.07-.15-.16-.26-.67-.32-.16,0-1.18,0-1.29,0s-.06,0-.06.09V44.4c0,.07,0,.09.06.09s1.28,0,1.49,0,.36,0,.44-.13.1-.12.14-.12,0,0,0,.07,0,.21-.07.53,0,.53,0,.6,0,.18-.07.18-.07,0-.07-.09a1,1,0,0,0,0-.31c0-.13-.12-.29-.49-.33s-1.18,0-1.34,0a.06.06,0,0,0-.07.07v.83c0,.32,0,1.41,0,1.61,0,.65.17.77,1.09.77a2.67,2.67,0,0,0,.9-.1c.24-.1.36-.29.42-.67,0-.1,0-.14.08-.14s.06.07.06.14a9.07,9.07,0,0,1-.12.91c-.07.25-.14.25-.51.25-1.42,0-2-.06-2.32-.06l-.92,0c-.1,0-.15,0-.15-.07s0-.06.08-.06a1.45,1.45,0,0,0,.28,0c.19,0,.23-.24.27-.51s0-1.14,0-2Z"/><path class="cls-2" d="M6.34,47.56A3.6,3.6,0,0,1,5.2,44.79a3.76,3.76,0,0,1,1.05-2.57,3.81,3.81,0,0,1,2.86-1,8.09,8.09,0,0,1,1.36.11,8,8,0,0,0,1,.14c.1,0,.12,0,.12.1s0,.19,0,.53,0,.83,0,1,0,.2-.08.2-.08-.07-.08-.2a1.3,1.3,0,0,0-.39-1,3.15,3.15,0,0,0-1.88-.53,2.87,2.87,0,0,0-2.16.68A3.14,3.14,0,0,0,6,44.71a3.39,3.39,0,0,0,3.39,3.44,2.15,2.15,0,0,0,1.63-.47,1.79,1.79,0,0,0,.35-.79c0-.1,0-.14.09-.14s.07.07.07.14a9.78,9.78,0,0,1-.21,1.2c-.06.17-.07.19-.24.27a5.41,5.41,0,0,1-1.69.22A4.34,4.34,0,0,1,6.34,47.56Z"/><path class="cls-2" d="M13.66,44.63c0-2.06,1.17-3.09,2.74-3.09s2.86,1.21,2.86,3.47c0,2.73-1.75,3.22-2.59,3.22C15,48.22,13.66,46.81,13.66,44.63Zm-.89.26a3.52,3.52,0,0,0,3.64,3.69,3.69,3.69,0,0,0,3.75-3.84,3.42,3.42,0,0,0-3.69-3.52A3.64,3.64,0,0,0,12.76,44.89Z"/><path class="cls-2" d="M23.22,45.74c0,1.38,0,2,.21,2.15s.4.22,1.13.22c.5,0,.91,0,1.14-.28a1.31,1.31,0,0,0,.24-.56c0-.07,0-.12.09-.12s.06,0,.06.14a6,6,0,0,1-.14.94c-.07.22-.09.25-.59.25-1.35,0-2-.06-2.52-.06l-.92,0c-.1,0-.15,0-.15-.07s0-.06.08-.06a1.45,1.45,0,0,0,.28,0c.19,0,.23-.24.27-.51s0-1.14,0-2V44.07c0-1.46,0-1.73,0-2s-.09-.47-.4-.54a1.78,1.78,0,0,0-.32,0s-.08,0-.08-.06,0-.08.15-.08c.42,0,1,0,1.06,0l1,0c.1,0,.15,0,.15.08s0,.06-.07.06l-.31,0c-.27,0-.35.21-.37.54s0,.56,0,2Z"/><path class="cls-2" d="M28,44.07c0-1.46,0-1.73,0-2s-.09-.47-.4-.54a1.76,1.76,0,0,0-.32,0s-.07,0-.07-.06,0-.08.15-.08c.42,0,1,0,1.06,0h2.15a2.58,2.58,0,0,0,.4,0s.08,0,.13,0,0,0,0,.08,0,.18-.07.44c0,.09,0,.51,0,.62s0,.11-.07.11-.07,0-.07-.12a1,1,0,0,0-.06-.34c-.07-.15-.16-.26-.67-.32-.16,0-1.18,0-1.29,0s-.06,0-.06.09V44.4c0,.07,0,.09.06.09s1.28,0,1.49,0,.36,0,.44-.13.1-.12.14-.12,0,0,0,.07,0,.21-.07.53,0,.53,0,.6,0,.18-.07.18-.07,0-.07-.09a1,1,0,0,0,0-.31c0-.13-.12-.29-.49-.33s-1.18,0-1.34,0a.06.06,0,0,0-.07.07v.83c0,.32,0,1.41,0,1.61,0,.65.17.77,1.09.77a2.66,2.66,0,0,0,.9-.1c.25-.1.36-.29.42-.67,0-.1,0-.14.08-.14s.06.07.06.14-.07.71-.12.91-.14.25-.51.25c-1.42,0-2-.06-2.32-.06l-.92,0c-.1,0-.15,0-.15-.07s0-.06.08-.06a1.44,1.44,0,0,0,.28,0c.19,0,.23-.24.27-.51s0-1.14,0-2Z"/><path class="cls-2" d="M36.77,44.07c0-1.46,0-1.73,0-2s-.09-.47-.4-.54a1.75,1.75,0,0,0-.32,0s-.08,0-.08-.06,0-.08.15-.08c.42,0,1,0,1.06,0s.75,0,1.18,0a2.29,2.29,0,0,1,1.75.54A1.63,1.63,0,0,1,40.56,43a2.18,2.18,0,0,1-2.31,2.24h-.2s-.1,0-.1-.07.06-.08.25-.08a1.56,1.56,0,0,0,1.63-1.53,2,2,0,0,0-.53-1.45A1.63,1.63,0,0,0,38,41.63a1.16,1.16,0,0,0-.4.06c-.06,0-.08.08-.08.18v3.86c0,.9,0,1.64,0,2s.08.48.37.51l.42,0c.06,0,.07,0,.07.06s0,.07-.15.07c-.52,0-1.11,0-1.16,0l-.9,0c-.1,0-.15,0-.15-.07s0-.06.07-.06a1.46,1.46,0,0,0,.28,0c.19,0,.23-.24.27-.51s0-1.14,0-2Z"/><path class="cls-2" d="M42.62,44.63c0-2.06,1.17-3.09,2.74-3.09s2.86,1.21,2.86,3.47c0,2.73-1.75,3.22-2.59,3.22C43.94,48.22,42.62,46.81,42.62,44.63Zm-.89.26a3.52,3.52,0,0,0,3.64,3.69,3.69,3.69,0,0,0,3.75-3.84,3.42,3.42,0,0,0-3.69-3.52A3.64,3.64,0,0,0,41.73,44.89Z"/><path class="cls-2" d="M52,45.74c0,1.38,0,2,.21,2.15s.4.22,1.13.22c.5,0,.91,0,1.14-.28a1.3,1.3,0,0,0,.24-.56c0-.07,0-.12.09-.12s.06,0,.06.14a5.86,5.86,0,0,1-.14.94c-.07.22-.09.25-.59.25-1.35,0-2-.06-2.52-.06l-.92,0c-.1,0-.15,0-.15-.07s0-.06.07-.06a1.46,1.46,0,0,0,.28,0c.19,0,.23-.24.27-.51s0-1.14,0-2V44.07c0-1.46,0-1.73,0-2s-.09-.47-.4-.54a1.76,1.76,0,0,0-.32,0s-.08,0-.08-.06,0-.08.15-.08c.42,0,1,0,1.06,0l1,0c.1,0,.15,0,.15.08s0,.06-.07.06l-.31,0c-.27,0-.35.21-.37.54s0,.56,0,2Z"/><path class="cls-2" d="M57.62,46a2,2,0,0,0-.22-1c-.07-.15-1.32-2.22-1.65-2.71a2.68,2.68,0,0,0-.64-.69.88.88,0,0,0-.4-.15s-.09,0-.09-.07,0-.07.12-.07l.93,0c.07,0,.42,0,.79,0,.1,0,.12,0,.12.07s-.06,0-.14.09a.19.19,0,0,0-.12.17.81.81,0,0,0,.12.37c.15.27,1.56,2.69,1.73,3,.18-.4,1.37-2.45,1.56-2.76a.9.9,0,0,0,.16-.48c0-.13,0-.24-.15-.26s-.14,0-.14-.09.06-.06.15-.06c.24,0,.54,0,.62,0l.91,0c.07,0,.12,0,.12.06s0,.07-.12.07a.89.89,0,0,0-.43.13,1.81,1.81,0,0,0-.5.48,30.2,30.2,0,0,0-1.79,3,2.25,2.25,0,0,0-.14.94v.81c0,.15,0,.55,0,.94s.1.48.39.51l.42,0c.06,0,.07,0,.07.06s0,.07-.15.07c-.52,0-1.11,0-1.15,0l-.92,0c-.1,0-.15,0-.15-.07s0-.06.07-.06a1.46,1.46,0,0,0,.28,0c.19,0,.27-.24.29-.51s0-.79,0-.94Z"/><path class="cls-2" d="M64.91,45.73c0,.9,0,1.64,0,2s.09.48.37.51l.42,0c.06,0,.07,0,.07.06s0,.07-.15.07c-.52,0-1.11,0-1.15,0l-.92,0c-.1,0-.15,0-.15-.07s0-.06.07-.06a1.45,1.45,0,0,0,.28,0c.19,0,.24-.24.27-.51s0-1.14,0-2v-4l-1.39,0c-.58,0-.81.08-1,.3a1.55,1.55,0,0,0-.16.29c0,.08-.06.09-.09.09s0,0,0-.08.19-.9.21-1,.06-.18.1-.18a1.8,1.8,0,0,0,.41.11c.27,0,.63,0,.74,0h3.52a4.6,4.6,0,0,0,.93-.09s0,.05,0,.11c0,.28,0,.93,0,1s0,.12-.07.12-.07,0-.08-.16v-.1c0-.28-.25-.5-1.15-.52l-1.18,0Z"/><path class="cls-2" d="M69.4,44.07c0-1.46,0-1.73,0-2s-.09-.47-.41-.54a1.75,1.75,0,0,0-.32,0s-.07,0-.07-.06,0-.08.15-.08c.42,0,1,0,1.06,0h2.15a2.66,2.66,0,0,0,.41,0s.08,0,.13,0,0,0,0,.08,0,.18-.07.44c0,.09,0,.51,0,.62s0,.11-.07.11-.08,0-.08-.12a1,1,0,0,0-.06-.34c-.06-.15-.16-.26-.67-.32-.16,0-1.19,0-1.29,0s-.06,0-.06.09V44.4c0,.07,0,.09.06.09s1.28,0,1.49,0,.36,0,.44-.13.1-.12.14-.12,0,0,0,.07,0,.21-.08.53,0,.53,0,.6,0,.18-.06.18-.07,0-.07-.09a1,1,0,0,0,0-.31c0-.13-.12-.29-.49-.33s-1.18,0-1.34,0a.06.06,0,0,0-.07.07v.83c0,.32,0,1.41,0,1.61,0,.65.17.77,1.09.77a2.68,2.68,0,0,0,.9-.1c.25-.1.36-.29.42-.67,0-.1,0-.14.08-.14s.06.07.06.14-.07.71-.12.91-.14.25-.51.25c-1.42,0-2-.06-2.32-.06l-.92,0c-.1,0-.15,0-.15-.07s0-.06.07-.06a1.47,1.47,0,0,0,.28,0c.19,0,.24-.24.27-.51s0-1.14,0-2Z"/><path class="cls-2" d="M75.19,47.56a3.6,3.6,0,0,1-1.14-2.78,3.76,3.76,0,0,1,1.05-2.57,3.82,3.82,0,0,1,2.87-1,8.14,8.14,0,0,1,1.36.11,7.86,7.86,0,0,0,1,.14c.1,0,.12,0,.12.1s0,.19,0,.53,0,.83,0,1,0,.2-.08.2-.08-.07-.08-.2a1.3,1.3,0,0,0-.4-1,3.14,3.14,0,0,0-1.88-.53,2.89,2.89,0,0,0-2.16.68,3.14,3.14,0,0,0-.84,2.45,3.39,3.39,0,0,0,3.39,3.44,2.15,2.15,0,0,0,1.63-.47,1.75,1.75,0,0,0,.35-.79c0-.1,0-.14.09-.14s.06.07.06.14a9.72,9.72,0,0,1-.2,1.2c-.06.17-.07.19-.25.27a5.42,5.42,0,0,1-1.69.22A4.34,4.34,0,0,1,75.19,47.56Z"/><path class="cls-2" d="M88.36,45.73c0,.9,0,1.64,0,2s.09.48.37.51l.42,0c.06,0,.07,0,.07.06s0,.07-.15.07c-.52,0-1.11,0-1.15,0l-.92,0c-.1,0-.15,0-.15-.07s0-.06.07-.06a1.45,1.45,0,0,0,.28,0c.19,0,.23-.24.27-.51s0-1.14,0-2v-1a.06.06,0,0,0-.06-.06h-4s-.05,0-.05.06v1c0,.9,0,1.64,0,2s.09.48.37.51l.42,0c.06,0,.08,0,.08.06s0,.07-.15.07c-.52,0-1.11,0-1.15,0l-.92,0c-.1,0-.15,0-.15-.07s0-.06.08-.06a1.47,1.47,0,0,0,.28,0c.19,0,.24-.24.27-.51s0-1.14,0-2V44.07c0-1.46,0-1.73,0-2s-.09-.47-.4-.54a1.77,1.77,0,0,0-.32,0s-.07,0-.07-.06,0-.08.15-.08c.43,0,1,0,1.06,0l.92,0c.11,0,.15,0,.15.08s0,.06-.07.06l-.24,0c-.25,0-.33.21-.35.54s0,.56,0,2v.2s0,.05.05.05h4s.06,0,.06-.05v-.2c0-1.46,0-1.73,0-2s-.09-.47-.4-.54a1.81,1.81,0,0,0-.32,0s-.08,0-.08-.06,0-.08.15-.08c.42,0,1,0,1.06,0l.92,0c.1,0,.15,0,.15.08s0,.06-.07.06l-.23,0c-.26,0-.33.21-.35.54s0,.56,0,2Z"/><path class="cls-2" d="M92,47.17c0,.77.11,1,.36,1.09a2,2,0,0,0,.47.06s.07,0,.07.06-.05.07-.17.07c-.54,0-.91,0-1,0s-.48,0-.9,0c-.1,0-.15,0-.15-.07s0-.06.07-.06a1.31,1.31,0,0,0,.39-.06c.23-.06.28-.34.28-1.19V41.69c0-.37,0-.47.1-.47s.24.21.33.3,1.54,1.67,3,3.22c.93,1,2,2.14,2.25,2.45L97,42.42c0-.61-.08-.82-.36-.89a2.54,2.54,0,0,0-.46,0c-.07,0-.08,0-.08-.07s.08-.07.19-.07c.42,0,.87,0,1,0s.41,0,.8,0c.1,0,.17,0,.17.07s0,.07-.1.07a.8.8,0,0,0-.23,0c-.31.07-.35.27-.35.84l0,5.5c0,.62,0,.67-.08.67s-.18-.1-.69-.6c-.1-.1-1.46-1.47-2.45-2.54s-2.15-2.36-2.45-2.7Z"/><path class="cls-2" d="M101.39,45.73c0,.9,0,1.64,0,2s.08.48.37.51l.42,0c.06,0,.07,0,.07.06s0,.07-.15.07c-.52,0-1.11,0-1.15,0l-.92,0c-.1,0-.15,0-.15-.07s0-.06.07-.06a1.45,1.45,0,0,0,.28,0c.19,0,.24-.24.27-.51s0-1.14,0-2V44.07c0-1.46,0-1.73,0-2s-.11-.48-.32-.53a1.27,1.27,0,0,0-.29,0s-.07,0-.07-.06,0-.08.15-.08l1,0,.92,0c.1,0,.15,0,.15.08s0,.06-.07.06l-.23,0c-.26,0-.33.21-.35.54s0,.56,0,2Z"/><path class="cls-2" d="M104.55,44.63c0-2.06,1.18-3.09,2.74-3.09s2.86,1.21,2.86,3.47c0,2.73-1.75,3.22-2.59,3.22C105.87,48.22,104.55,46.81,104.55,44.63Zm5.83,4.51a8.17,8.17,0,0,0,3.87,1.26,7.18,7.18,0,0,0,3-.65c.06,0,.08-.06.08-.09a.05.05,0,0,0-.06-.06l-.13,0a5.38,5.38,0,0,1-1.85.36,8.62,8.62,0,0,1-4-1.1l-1.93-1a3.87,3.87,0,0,0,1.66-3.16,3.43,3.43,0,0,0-3.69-3.52,3.64,3.64,0,0,0-3.7,3.67,3.53,3.53,0,0,0,3.67,3.69,3.63,3.63,0,0,0,1.47-.32Z"/><path class="cls-2" d="M112.83,44.07c0-1.46,0-1.73,0-2s-.09-.47-.41-.54a1.75,1.75,0,0,0-.32,0s-.07,0-.07-.06,0-.08.15-.08c.42,0,1,0,1.08,0l.93,0c.11,0,.15,0,.15.08s0,.06-.07.06l-.24,0c-.25,0-.33.21-.35.54s0,.56,0,2v1.31a2.88,2.88,0,0,0,.71,2.32,1.82,1.82,0,0,0,1.42.52,2,2,0,0,0,1.47-.68,3.64,3.64,0,0,0,.54-2.3V44.07c0-1.46,0-1.73,0-2s-.09-.47-.4-.54a1.77,1.77,0,0,0-.32,0s-.07,0-.07-.06,0-.08.15-.08c.42,0,.94,0,1,0s.5,0,.79,0c.1,0,.15,0,.15.08s0,.06-.07.06a.8.8,0,0,0-.24,0c-.26,0-.33.21-.35.54s0,.56,0,2v1a3.66,3.66,0,0,1-.86,2.81,2.75,2.75,0,0,1-1.94.69,2.88,2.88,0,0,1-1.93-.67,3.1,3.1,0,0,1-.82-2.47Z"/><path class="cls-2" d="M121.17,44.07c0-1.46,0-1.73,0-2s-.09-.47-.41-.54a1.72,1.72,0,0,0-.32,0s-.07,0-.07-.06,0-.08.15-.08c.42,0,1,0,1.06,0h2.15a2.62,2.62,0,0,0,.4,0s.09,0,.13,0,0,0,0,.08,0,.18-.08.44c0,.09,0,.51,0,.62s0,.11-.07.11-.08,0-.08-.12a1,1,0,0,0-.06-.34c-.06-.15-.16-.26-.67-.32-.16,0-1.18,0-1.29,0s-.06,0-.06.09V44.4c0,.07,0,.09.06.09s1.28,0,1.49,0,.36,0,.44-.13.1-.12.14-.12,0,0,0,.07,0,.21-.07.53,0,.53,0,.6,0,.18-.07.18-.07,0-.07-.09a1,1,0,0,0,0-.31c0-.13-.12-.29-.49-.33s-1.18,0-1.34,0a.06.06,0,0,0-.07.07v.83c0,.32,0,1.41,0,1.61,0,.65.17.77,1.09.77a2.65,2.65,0,0,0,.9-.1c.25-.1.36-.29.43-.67,0-.1,0-.14.08-.14s.06.07.06.14-.07.71-.12.91-.14.25-.51.25c-1.42,0-2-.06-2.32-.06l-.92,0c-.1,0-.15,0-.15-.07s0-.06.07-.06a1.38,1.38,0,0,0,.28,0c.19,0,.24-.24.28-.51s0-1.14,0-2Z"/><path class="cls-2" d="M.61,55.34c0-1.46,0-1.73,0-2s-.09-.47-.4-.53a1.76,1.76,0,0,0-.32,0s-.07,0-.07-.06,0-.08.15-.08c.42,0,1,0,1.06,0H3.32a2.06,2.06,0,0,0,.41,0c.06,0,.09-.06.13-.06s.06,0,.06.08,0,.18-.08.44c0,.1,0,.51,0,.62s0,.1-.07.1-.07,0-.07-.11a1,1,0,0,0-.08-.35.71.71,0,0,0-.64-.3L1.49,53c-.06,0-.08,0-.08.11v2.59c0,.06,0,.08.07.08H3.09c.23,0,.35,0,.43-.17s.07-.1.1-.1,0,0,0,.08,0,.22-.08.52,0,.57,0,.63,0,.18-.07.18-.07,0-.07-.08a1.64,1.64,0,0,0-.06-.34.57.57,0,0,0-.49-.34c-.23,0-1.26,0-1.42,0s-.07,0-.07.08V57c0,.9,0,1.64,0,2s.08.48.37.52l.42,0c.06,0,.07,0,.07.06s0,.07-.15.07c-.52,0-1.11,0-1.16,0l-.92,0c-.1,0-.15,0-.15-.07s0-.06.07-.06a1.37,1.37,0,0,0,.28,0c.19,0,.23-.24.27-.52s0-1.14,0-2Z"/><path class="cls-2" d="M8.9,51.34c0,.08,0,.11,0,.11a1.14,1.14,0,0,0-.28,0,6,6,0,0,0-1.43.4L7,51.9a.05.05,0,0,1,0-.06s0,0,.07-.08c.34-.24,1.21-.76,1.28-.8s.22-.12.26-.12,0,0,.09.09S8.8,51.15,8.9,51.34Zm-2.72,4c0-1.46,0-1.73,0-2s-.09-.47-.4-.53a1.77,1.77,0,0,0-.32,0s-.07,0-.07-.06,0-.08.15-.08c.42,0,1,0,1.06,0H8.72a2.52,2.52,0,0,0,.4,0s.08,0,.13,0,0,0,0,.08,0,.18-.07.44c0,.1,0,.51,0,.62s0,.1-.07.1-.08,0-.08-.12A1,1,0,0,0,9,53.33c-.07-.15-.16-.26-.67-.32C8.15,53,7.12,53,7,53S7,53,7,53.08v2.59c0,.07,0,.1.06.1s1.28,0,1.49,0,.36,0,.44-.13.1-.12.14-.12,0,0,0,.08,0,.22-.07.52,0,.54,0,.6,0,.18-.07.18-.07,0-.07-.08a.94.94,0,0,0,0-.31c0-.13-.12-.29-.49-.33s-1.18,0-1.34,0a.06.06,0,0,0-.07.07V57c0,.32,0,1.41,0,1.61,0,.65.17.77,1.09.77a2.67,2.67,0,0,0,.9-.1c.24-.1.36-.29.42-.67,0-.1,0-.14.08-.14s.06.08.06.14-.08.71-.12.91-.14.24-.51.24c-1.42,0-2-.05-2.32-.05l-.92,0c-.1,0-.15,0-.15-.07s0-.06.08-.06a1.35,1.35,0,0,0,.28,0c.19,0,.24-.24.27-.52s0-1.14,0-2Z"/><path class="cls-2" d="M12.69,55.19c0-.72,0-1.68,0-2a.17.17,0,0,1,.11-.19,2.52,2.52,0,0,1,.61-.07A3.86,3.86,0,0,1,16.5,54a3.35,3.35,0,0,1,.9,2.37,3.28,3.28,0,0,1-.75,2.24,3.16,3.16,0,0,1-2.24.87c-1.11,0-1.48-.2-1.6-.38a2,2,0,0,1-.1-.72c0-.17,0-1,0-2ZM11.9,57c0,.9,0,1.64,0,2s-.08.48-.27.52a1.34,1.34,0,0,1-.28,0c-.06,0-.07,0-.07.06s0,.07.15.07l.92,0c.09,0,1.28.11,2.09.11a3.74,3.74,0,0,0,2.85-1.08,3.84,3.84,0,0,0,1-2.65,3.37,3.37,0,0,0-.91-2.39c-1.12-1.15-2.84-1.07-3.77-1.07-.56,0-1.16,0-1.27,0s-.64,0-1.06,0c-.1,0-.15,0-.15.08s0,.06.08.06a1.75,1.75,0,0,1,.32,0c.31.07.38.21.4.53s0,.56,0,2Z"/><path class="cls-2" d="M22.87,51.34c0,.08,0,.11,0,.11a1.15,1.15,0,0,0-.28,0,6,6,0,0,0-1.43.4l-.14,0a.05.05,0,0,1,0-.06s0,0,.07-.08c.34-.24,1.21-.76,1.28-.8s.22-.12.26-.12,0,0,.09.09S22.76,51.15,22.87,51.34Zm-2.72,4c0-1.46,0-1.73,0-2s-.09-.47-.4-.53a1.76,1.76,0,0,0-.32,0s-.07,0-.07-.06,0-.08.15-.08c.42,0,1,0,1.06,0h2.15a2.54,2.54,0,0,0,.4,0s.08,0,.13,0,0,0,0,.08,0,.18-.08.44c0,.1,0,.51,0,.62s0,.1-.07.1-.08,0-.08-.12a1,1,0,0,0-.06-.34c-.07-.15-.16-.26-.67-.32-.16,0-1.18,0-1.29,0s-.06,0-.06.09v2.59c0,.07,0,.1.06.1s1.28,0,1.49,0,.36,0,.44-.13.1-.12.14-.12,0,0,0,.08,0,.22-.08.52,0,.54,0,.6,0,.18-.07.18-.07,0-.07-.08a1,1,0,0,0,0-.31c0-.13-.12-.29-.49-.33s-1.18,0-1.34,0a.06.06,0,0,0-.07.07V57c0,.32,0,1.41,0,1.61,0,.65.17.77,1.09.77a2.67,2.67,0,0,0,.9-.1c.24-.1.36-.29.42-.67,0-.1,0-.14.08-.14s.06.08.06.14-.08.71-.12.91-.14.24-.51.24c-1.42,0-2-.05-2.32-.05l-.92,0c-.1,0-.15,0-.15-.07s0-.06.07-.06a1.36,1.36,0,0,0,.28,0c.19,0,.23-.24.27-.52s0-1.14,0-2Z"/><path class="cls-2" d="M26.62,53.09A.11.11,0,0,1,26.7,53a2.72,2.72,0,0,1,.63-.06c1,0,1.62.71,1.62,1.88a1.71,1.71,0,0,1-.57,1.45,1.2,1.2,0,0,1-.7.18,2.6,2.6,0,0,1-1-.15.12.12,0,0,1-.07-.11ZM25.87,57c0,.9,0,1.64,0,2s-.08.48-.27.52a1.36,1.36,0,0,1-.28,0c-.06,0-.07,0-.07.06s0,.07.15.07l.88,0s.64,0,1.16,0c.1,0,.15,0,.15-.07s0-.06-.07-.06l-.42,0c-.28,0-.34-.24-.37-.52s0-1.14,0-2v-.23s0-.07.07-.07l1.16,0a.16.16,0,0,1,.12.06c.19.24.63.87,1,1.39a4.94,4.94,0,0,0,1.27,1.38,1.9,1.9,0,0,0,1,.18h.67c.17,0,.23,0,.23-.07s0-.06-.08-.06a2.15,2.15,0,0,1-.37,0,2,2,0,0,1-1.15-.67c-.54-.58-1.18-1.42-2-2.41a2.89,2.89,0,0,0,1.14-2.17A1.65,1.65,0,0,0,29.09,53a2.92,2.92,0,0,0-1.72-.41l-1.11,0s-.64,0-1.06,0c-.1,0-.15,0-.15.08s0,.06.07.06a1.76,1.76,0,0,1,.32,0c.31.07.38.21.4.53s0,.56,0,2Z"/><path class="cls-2" d="M33.49,56.61s0,0,0-.07L34.29,54c0-.14.09-.14.14,0l.89,2.54s0,.07,0,.07Zm-1.31,2.07c-.17.47-.36.83-.79.89l-.27,0s-.08,0-.08.06.06.07.18.07c.44,0,1,0,1.06,0l.73,0c.08,0,.14,0,.14-.07s0-.06-.09-.06H33c-.16,0-.36-.09-.36-.27a2,2,0,0,1,.13-.63L33.29,57a.1.1,0,0,1,.09-.07h2a.08.08,0,0,1,.08.05l.87,2.31c.06.15,0,.24-.06.26s-.07,0-.07.07.1.06.28.07l1.47,0c.1,0,.19,0,.19-.07s0-.06-.09-.06a1.22,1.22,0,0,1-.38-.06c-.2-.06-.47-.21-.81-1-.57-1.43-2-5.31-2.19-5.66s-.15-.34-.21-.34-.09.06-.21.37Z"/><path class="cls-2" d="M40.32,57c0,1.38,0,2,.21,2.15s.4.22,1.13.22c.5,0,.91,0,1.14-.28a1.28,1.28,0,0,0,.24-.56c0-.08,0-.12.09-.12s.06,0,.06.14a6,6,0,0,1-.14.94c-.06.22-.09.25-.59.25-1.35,0-2-.05-2.52-.05l-.92,0c-.1,0-.15,0-.15-.07s0-.06.08-.06a1.35,1.35,0,0,0,.28,0c.19,0,.24-.24.27-.52s0-1.14,0-2V55.34c0-1.46,0-1.73,0-2s-.09-.47-.4-.53a1.77,1.77,0,0,0-.32,0s-.07,0-.07-.06,0-.08.15-.08c.42,0,1,0,1.06,0l1,0c.1,0,.15,0,.15.08s0,.06-.08.06l-.31,0c-.27,0-.35.2-.37.53s0,.56,0,2Z"/><path class="cls-2" d="M45.09,55.34c0-1.46,0-1.73,0-2s-.09-.47-.4-.53a1.76,1.76,0,0,0-.32,0s-.07,0-.07-.06,0-.08.15-.08c.42,0,1,0,1.06,0h2.15a2.5,2.5,0,0,0,.4,0s.08,0,.13,0,0,0,0,.08,0,.18-.08.44c0,.1,0,.51,0,.62s0,.1-.07.1-.08,0-.08-.12a1,1,0,0,0-.06-.34c-.07-.15-.16-.26-.67-.32-.16,0-1.18,0-1.29,0s-.06,0-.06.09v2.59c0,.07,0,.1.06.1s1.28,0,1.49,0,.36,0,.44-.13.1-.12.14-.12,0,0,0,.08,0,.22-.07.52,0,.54,0,.6,0,.18-.07.18-.07,0-.07-.08a1,1,0,0,0,0-.31c0-.13-.12-.29-.49-.33s-1.18,0-1.34,0a.06.06,0,0,0-.07.07V57c0,.32,0,1.41,0,1.61,0,.65.17.77,1.09.77a2.66,2.66,0,0,0,.9-.1c.24-.1.36-.29.42-.67,0-.1,0-.14.08-.14s.06.08.06.14a9,9,0,0,1-.12.91c-.07.24-.14.24-.51.24-1.42,0-2-.05-2.32-.05l-.92,0c-.1,0-.15,0-.15-.07s0-.06.08-.06a1.35,1.35,0,0,0,.28,0c.19,0,.23-.24.27-.52s0-1.14,0-2Z"/><path class="cls-2" d="M54.66,55.19c0-.72,0-1.68,0-2a.17.17,0,0,1,.11-.19,2.5,2.5,0,0,1,.61-.07A3.86,3.86,0,0,1,58.46,54a3.35,3.35,0,0,1,.9,2.37,3.28,3.28,0,0,1-.75,2.24,3.16,3.16,0,0,1-2.24.87c-1.11,0-1.47-.2-1.6-.38a2,2,0,0,1-.1-.72c0-.17,0-1,0-2ZM53.87,57c0,.9,0,1.64,0,2s-.08.48-.27.52a1.36,1.36,0,0,1-.28,0c-.06,0-.08,0-.08.06s0,.07.15.07l.92,0c.09,0,1.28.11,2.09.11a3.74,3.74,0,0,0,2.85-1.08,3.84,3.84,0,0,0,1-2.65,3.37,3.37,0,0,0-.91-2.39c-1.12-1.15-2.84-1.07-3.77-1.07-.56,0-1.15,0-1.27,0s-.64,0-1.06,0c-.1,0-.15,0-.15.08s0,.06.07.06a1.76,1.76,0,0,1,.32,0c.31.07.39.21.4.53s0,.56,0,2Z"/><path class="cls-2" d="M62.48,55.34c0-1.46,0-1.73,0-2s-.09-.47-.4-.53a1.75,1.75,0,0,0-.32,0s-.08,0-.08-.06,0-.08.15-.08c.42,0,1,0,1.06,0H65a2.54,2.54,0,0,0,.41,0s.08,0,.13,0,0,0,0,.08,0,.18-.08.44c0,.1,0,.51,0,.62s0,.1-.06.1-.08,0-.08-.12a1,1,0,0,0-.05-.34c-.07-.15-.16-.26-.67-.32-.16,0-1.19,0-1.29,0s-.06,0-.06.09v2.59c0,.07,0,.1.06.1s1.28,0,1.49,0,.36,0,.44-.13.1-.12.14-.12,0,0,0,.08,0,.22-.07.52,0,.54,0,.6,0,.18-.07.18-.07,0-.07-.08a1,1,0,0,0,0-.31c0-.13-.12-.29-.49-.33s-1.19,0-1.34,0a.06.06,0,0,0-.06.07V57c0,.32,0,1.41,0,1.61,0,.65.17.77,1.09.77a2.68,2.68,0,0,0,.9-.1c.24-.1.36-.29.42-.67,0-.1,0-.14.08-.14s.06.08.06.14-.08.71-.12.91-.14.24-.5.24c-1.42,0-2-.05-2.32-.05l-.92,0c-.1,0-.15,0-.15-.07s0-.06.07-.06a1.36,1.36,0,0,0,.28,0c.19,0,.23-.24.27-.52s0-1.14,0-2Z"/><path class="cls-2" d="M72.05,57c0,1.38,0,2,.21,2.15s.39.22,1.13.22c.5,0,.91,0,1.14-.28a1.27,1.27,0,0,0,.24-.56c0-.08,0-.12.08-.12s.06,0,.06.14a6.13,6.13,0,0,1-.14.94c-.06.22-.09.25-.59.25-1.35,0-2-.05-2.52-.05l-.92,0c-.1,0-.15,0-.15-.07s0-.06.07-.06a1.34,1.34,0,0,0,.28,0c.19,0,.23-.24.27-.52s0-1.14,0-2V55.34c0-1.46,0-1.73,0-2s-.09-.47-.4-.53a1.76,1.76,0,0,0-.32,0s-.08,0-.08-.06,0-.08.15-.08c.42,0,1,0,1.06,0l1,0c.1,0,.15,0,.15.08s0,.06-.08.06l-.31,0c-.27,0-.35.2-.37.53s0,.56,0,2Z"/><path class="cls-2" d="M77.55,56.61s0,0,0-.07L78.34,54c0-.14.09-.14.14,0l.89,2.54s0,.07,0,.07Zm-1.31,2.07c-.17.47-.36.83-.79.89l-.28,0s-.09,0-.09.06.06.07.18.07c.44,0,1,0,1.06,0l.73,0c.08,0,.14,0,.14-.07s0-.06-.09-.06H77c-.16,0-.36-.09-.36-.27a2,2,0,0,1,.13-.63L77.35,57a.1.1,0,0,1,.09-.07h2a.08.08,0,0,1,.08.05l.87,2.31c.06.15,0,.24-.06.26s-.06,0-.06.07.1.06.28.07l1.47,0c.1,0,.19,0,.19-.07s0-.06-.1-.06a1.19,1.19,0,0,1-.37-.06c-.2-.06-.47-.21-.81-1-.58-1.43-2-5.31-2.19-5.66s-.15-.34-.21-.34-.09.06-.21.37Z"/><path class="cls-2" d="M83,55.34c0-1.46,0-1.73,0-2s-.09-.47-.4-.53a1.77,1.77,0,0,0-.32,0s-.08,0-.08-.06,0-.08.15-.08c.42,0,1,0,1.08,0l.93,0c.1,0,.15,0,.15.08s0,.06-.07.06l-.24,0c-.25,0-.33.2-.35.53s0,.56,0,2v1.32a2.9,2.9,0,0,0,.7,2.32,1.84,1.84,0,0,0,1.42.52,2,2,0,0,0,1.47-.67,3.65,3.65,0,0,0,.55-2.3V55.34c0-1.46,0-1.73,0-2s-.1-.47-.41-.53a1.75,1.75,0,0,0-.32,0s-.07,0-.07-.06,0-.08.15-.08c.42,0,.94,0,1,0s.51,0,.79,0c.1,0,.15,0,.15.08s0,.06-.08.06a.84.84,0,0,0-.24,0c-.25,0-.33.2-.34.53s0,.56,0,2v1a3.66,3.66,0,0,1-.86,2.81,2.74,2.74,0,0,1-1.94.7,2.88,2.88,0,0,1-1.93-.67A3.1,3.1,0,0,1,83,56.71Z"/><path class="cls-2" d="M90.78,59.6c-.13-.07-.14-.1-.14-.36,0-.47,0-.85,0-1s0-.15.07-.15.07,0,.07.1a1.66,1.66,0,0,0,0,.35,1.28,1.28,0,0,0,1.39,1,1.25,1.25,0,0,0,1.34-1.25c0-.65-.27-1-1.08-1.69l-.42-.35c-1-.82-1.22-1.4-1.22-2a1.72,1.72,0,0,1,1.94-1.69,3.56,3.56,0,0,1,.87.1,1.54,1.54,0,0,0,.33,0c.07,0,.1,0,.1.07s0,.35,0,1c0,.15,0,.22-.07.22s-.07,0-.07-.12a1.67,1.67,0,0,0-.12-.47c-.06-.1-.31-.5-1.17-.5a1.07,1.07,0,0,0-1.16,1.09c0,.53.26.85,1.15,1.58l.26.21c1.11.87,1.37,1.46,1.37,2.21a1.94,1.94,0,0,1-.8,1.56,2.46,2.46,0,0,1-1.42.39A2.88,2.88,0,0,1,90.78,59.6Z"/><path class="cls-2" d="M97.27,56.61s0,0,0-.07L98.07,54c0-.14.09-.14.14,0l.89,2.54s0,.07,0,.07ZM96,58.68c-.17.47-.36.83-.79.89l-.27,0s-.09,0-.09.06.06.07.18.07c.44,0,1,0,1.06,0l.73,0c.08,0,.14,0,.14-.07s0-.06-.09-.06h-.1c-.16,0-.35-.09-.35-.27a2,2,0,0,1,.13-.63L97.07,57a.1.1,0,0,1,.1-.07h2a.08.08,0,0,1,.08.05l.87,2.31c.06.15,0,.24-.06.26s-.07,0-.07.07.1.06.29.07l1.47,0c.1,0,.19,0,.19-.07s0-.06-.1-.06a1.23,1.23,0,0,1-.38-.06c-.2-.06-.47-.21-.81-1-.57-1.43-2-5.31-2.19-5.66s-.15-.34-.21-.34-.09.06-.2.37Z"/><path class="cls-2" d="M103.56,58.44c0,.77.11,1,.37,1.09a2.08,2.08,0,0,0,.47.06s.08,0,.08.06-.06.07-.17.07c-.54,0-.91,0-1,0s-.48,0-.9,0c-.1,0-.15,0-.15-.07s0-.06.07-.06a1.35,1.35,0,0,0,.39-.06c.23-.07.28-.34.28-1.19V53c0-.36,0-.47.1-.47s.24.21.33.3l3,3.22c.93,1,2,2.14,2.26,2.45l-.1-4.77c0-.61-.07-.82-.36-.89a2.55,2.55,0,0,0-.46,0c-.07,0-.07,0-.07-.07s.07-.07.19-.07c.42,0,.87,0,1,0s.41,0,.8,0c.1,0,.17,0,.17.07s0,.07-.1.07a.84.84,0,0,0-.23,0c-.31.07-.35.27-.35.84l0,5.5c0,.62,0,.67-.08.67s-.19-.1-.69-.6c-.1-.09-1.46-1.47-2.45-2.54s-2.15-2.36-2.45-2.7Z"/><path class="cls-2" d="M112.46,58.44c0,.77.12,1,.37,1.09a2.05,2.05,0,0,0,.47.06s.07,0,.07.06-.06.07-.17.07c-.53,0-.91,0-1,0s-.48,0-.9,0c-.09,0-.15,0-.15-.07s0-.06.08-.06a1.34,1.34,0,0,0,.38-.06c.24-.07.28-.34.28-1.19V53c0-.36,0-.47.1-.47s.24.21.33.3l3,3.22c.93,1,2,2.14,2.26,2.45l-.1-4.77c0-.61-.08-.82-.37-.89a2.54,2.54,0,0,0-.46,0c-.07,0-.07,0-.07-.07s.07-.07.19-.07c.42,0,.87,0,1,0s.41,0,.8,0c.1,0,.17,0,.17.07s0,.07-.1.07a.81.81,0,0,0-.22,0c-.31.07-.35.27-.35.84l0,5.5c0,.62,0,.67-.08.67s-.19-.1-.68-.6c-.11-.09-1.46-1.47-2.45-2.54s-2.15-2.36-2.45-2.7Z"/><path class="cls-2" d="M121.1,55.34c0-1.46,0-1.73,0-2s-.09-.47-.4-.53a1.75,1.75,0,0,0-.32,0s-.07,0-.07-.06,0-.08.15-.08c.42,0,1,0,1.06,0h2.15a2.57,2.57,0,0,0,.4,0s.08,0,.13,0,0,0,0,.08,0,.18-.08.44c0,.1,0,.51,0,.62s0,.1-.07.1-.07,0-.07-.12a1.08,1.08,0,0,0-.05-.34c-.07-.15-.16-.26-.67-.32-.16,0-1.18,0-1.28,0s-.06,0-.06.09v2.59c0,.07,0,.1.06.1s1.27,0,1.49,0,.36,0,.44-.13.1-.12.14-.12,0,0,0,.08,0,.22-.08.52,0,.54,0,.6,0,.18-.06.18-.07,0-.07-.08a1,1,0,0,0,0-.31c0-.13-.12-.29-.49-.33s-1.18,0-1.34,0a.06.06,0,0,0-.07.07V57c0,.32,0,1.41,0,1.61,0,.65.17.77,1.09.77a2.67,2.67,0,0,0,.9-.1c.24-.1.36-.29.42-.67,0-.1,0-.14.08-.14s.06.08.06.14-.08.71-.12.91-.14.24-.51.24c-1.42,0-2-.05-2.32-.05l-.92,0c-.11,0-.15,0-.15-.07s0-.06.07-.06a1.36,1.36,0,0,0,.28,0c.19,0,.23-.24.27-.52s0-1.14,0-2Z"/></svg>